PathFileType	4	(X/Y/Z)	path1_08_0-572.trc
DataRate	CameraRate	NumFrames	NumMarkers	Units	OrigDataRate	OrigDataStartFrame	OrigNumFrames
30	30	9	22	m	30	429	572
Frame#	Time	Hip			RHip			RKnee			RAnkle			RBigToe			RSmallToe			RHeel			LHip			LKnee			LAnkle			LBigToe			LSmallToe			LHeel			Neck			Head			Nose			RShoulder			RElbow			RWrist			LShoulder			LElbow			LWrist		
		X1	Y1	Z1	X2	Y2	Z2	X3	Y3	Z3	X4	Y4	Z4	X5	Y5	Z5	X6	Y6	Z6	X7	Y7	Z7	X8	Y8	Z8	X9	Y9	Z9	X10	Y10	Z10	X11	Y11	Z11	X12	Y12	Z12	X13	Y13	Z13	X14	Y14	Z14	X15	Y15	Z15	X16	Y16	Z16	X17	Y17	Z17	X18	Y18	Z18	X19	Y19	Z19	X20	Y20	Z20	X21	Y21	Z21	X22	Y22	Z22
430	14.333333333333334	0.10258956993469187	0.8511766376587704	0.9705125919144583	0.10894870492091084	0.8320941784851751	0.8666515486446872	0.09331583396615467	0.4752834237273697	0.8875505324235025	0.13177046125264136	0.1011941868031195	0.926358318869036	-0.04722575923218795	0.021304651430200522	0.9276051234489263	-0.008373900283632964	0.012817820820099227	0.8758953977361036	0.17606355791778033	0.032451039218668626	0.9371824068586256	0.10624371268198968	0.8240754407464286	1.0635237780408133	-0.005334567257827374	0.4883274426352003	1.0764134392362545	0.2081446436257923	0.24108624331150716	1.0483158334901248	0.1159805075065306	0.08035885052867112	1.0577905738862952	0.1613148441340442	0.09484594231695836	1.0830546832095655	0.27973455120792196	0.21592041456738575	1.0436201225903936	0.08930248576229301	1.4546469995281914	0.9540097706650885	0.14354715114072614	1.6881488540746408	0.838407523978834	-0.07679652468369302	1.5686067949113993	0.9710947244438908	0.11213165306145405	1.3555142154105557	0.7710316649679639	0.10041324279021972	1.084823847488	0.7289733674309243	0.04595494513916297	0.8433058738847786	0.7083140444942754	0.11647104949992335	1.3505104020109437	1.1466956905718366	0.12888873079302154	1.0749376133341522	1.1857607346918195	0.06237124830698778	0.8459322767516043	1.2246517633186371
431	14.366666666666667	0.07041119495268154	0.8544768804294216	0.9706223068601915	0.08115673020788436	0.8352160427322017	0.8657757378139578	0.07960857231321676	0.4766203571345493	0.8876617671226229	0.13008534416343856	0.1035143565337148	0.9275931240876141	-0.04156819047282097	0.020025449129345705	0.9283110730246994	-0.006122390608845544	0.013924151380869342	0.8759757309757065	0.17801123056304818	0.035270365419865196	0.9362864147030239	0.0722298624152285	0.8282932727634268	1.0655975486286344	-0.048516804506274394	0.49330919797324446	1.0872964440948185	0.11588859843117333	0.21949561882802465	1.0579469863935682	-0.008570318874826458	0.0803102581354113	1.054603306725545	0.036637485992918446	0.09498163886966161	1.0878959704796718	0.17773659823355603	0.18360866245999408	1.0505854877162135	0.05464406339742583	1.4558006390523581	0.9549763500711435	0.12021261360113153	1.6901449349743978	0.8288948262161941	-0.1164747581194324	1.571643146577817	0.976529023430586	0.07814222157984609	1.3564647189228893	0.7709970427164697	0.05664030156394325	1.0847222895502766	0.727939342546601	-0.013122086219910609	0.8464232579911976	0.7085705205169048	0.08388478042133683	1.3510692069180208	1.1483084732220445	0.10194867304656839	1.0802862456940299	1.1905363290262565	0.0521594203700422	0.8444348897192686	1.2264983988073166
432	14.4	0.03994734973966692	0.8562443924583792	0.9701638638597582	0.0548175063108361	0.8359418401234336	0.8648307913426132	0.06581513339177633	0.4788336422969327	0.8875990751020316	0.12825626547933514	0.10467121982099874	0.9284803213700281	-0.03669976636489477	0.01888673131398804	0.9287286611784762	-0.005816895126207231	0.015616201072764686	0.875320856991506	0.1774109168979183	0.03773845303968017	0.9374528800395798	0.040206433528106905	0.8297426203669958	1.0671175981972816	-0.08988672977471147	0.4962497954798823	1.0932932158443691	0.02108616338521734	0.19394504301257062	1.0671360795730591	-0.13285608108598052	0.07791971866997129	1.0512664395352063	-0.0895607313009088	0.09257743823222632	1.09302553795123	0.07240609407813234	0.1470717888742789	1.056611018916735	0.020353319677231245	1.4556550468422078	0.956737594613171	0.08557160202352108	1.6914062234717075	0.8307090953917169	-0.15634343480250545	1.573625331314736	0.9829645825463141	0.04293415136426642	1.356498468316181	0.7715824101484638	0.015285169423641994	1.083677182932295	0.7286049211958044	-0.07064713623831609	0.8495375670398142	0.7106703171449162	0.05124831265645144	1.3505138885036492	1.1505600985247038	0.07555261645104366	1.0853951795676258	1.1962234985294353	0.04120088816158408	0.8439780209995837	1.2282103324051692
433	14.433333333333334	0.010742459885759411	0.8562516139303165	0.9695261291822752	0.028843146350040986	0.8342450380995533	0.8641402004751222	0.05167858861023546	0.4813621384288987	0.8874715291516901	0.12681779899595585	0.10460532205453886	0.9288293703679328	-0.034009292727407464	0.01815936628481921	0.9286815788719236	-0.0069134289634590574	0.01736349798994742	0.874249596632417	0.1747937617737994	0.039597920948548214	0.9404874506015225	0.009609368679128106	0.8283822444111013	1.0680537865587285	-0.13107721153976595	0.4967050624180574	1.0938869928456094	-0.07405151749067601	0.16940137006650924	1.074572220049473	-0.25038688898351885	0.07614096153599256	1.051518896453206	-0.20885580297193845	0.08911170601622134	1.099793539150782	-0.032515330647097995	0.11330817709254126	1.0615525544324589	-0.013689822694484061	1.4542418258708694	0.959154202621633	0.03625228611726371	1.6925627394220304	0.8470352715801039	-0.19377795303610593	1.5736734129893546	0.9888027697291581	0.008113859993709414	1.3548938310314884	0.7732648889834792	-0.02489960556438515	1.0819761646704993	0.7306197277612128	-0.1267282615690363	0.8528566218963556	0.713767254557363	0.01852669144932381	1.3489099057506202	1.1534174110078477	0.05016109465358844	1.0889974777032387	1.2012719674517622	0.02915353303980296	0.8442384697391854	1.2296868116444848
434	14.466666666666669	-0.01791333958097793	0.8544687142307322	0.9691828041861101	0.0020479212102763266	0.8305794084956162	0.8640230517070566	0.0369967115570773	0.4829937147732998	0.8876201748203049	0.12593268809695687	0.10403460387749057	0.9289098821821479	-0.03421279778202434	0.018097556178943597	0.9278963729237851	-0.008176757110835547	0.01852195633009917	0.8735127384459451	0.1716132344749795	0.04081571313678481	0.9442240229917921	-0.020269076229244225	0.8247875237692308	1.0685055515824458	-0.17191868162841678	0.4941058777804329	1.090629600479774	-0.16637564207411504	0.14916252087611942	1.0784730264520703	-0.35656983296015077	0.07770521309853157	1.056036415781683	-0.3159093547898001	0.0870656017666685	1.1076011027786046	-0.13265698245857738	0.08641220777894593	1.0644807371110692	-0.04786069991716931	1.451679129464961	0.9621454703044757	-0.027072181961944258	1.694208338006348	0.8770399174071556	-0.22766702980441178	1.5717163782008514	0.9933155939990993	-0.025389405985716075	1.3514295931072688	0.7761580438113052	-0.06470687366521065	1.079804337935627	0.7336020894495593	-0.18090698196538296	0.8562256407891516	0.7172181393493892	-0.014453958094954249	1.3465134724386953	1.1568228483409158	0.025730979114196847	1.0902782504237167	1.204649102814862	0.015552438291475068	0.8443400025665011	1.230524723169254
435	14.5	-0.046994318100989044	0.8510987172236817	0.969538084799773	-0.026619914894009382	0.8255478637127932	0.86472132184427	0.02123720344765974	0.4825985953735908	0.888525727792659	0.12511894238491972	0.1037800370701965	0.9291604133322278	-0.036647788274076366	0.01862806841306905	0.9262104750015878	-0.00839255864096032	0.018578196294294014	0.8736627908110688	0.1692260275066765	0.0418272119736739	0.9475187953890931	-0.05037714571780994	0.8196399393251085	1.0687772988899136	-0.2113004820655942	0.4883665106269835	1.0860253906296864	-0.2520353828887389	0.1346070486572262	1.0779450474852097	-0.44857434604084867	0.08370394698400657	1.0624632942564598	-0.40798534614112086	0.08801970500246682	1.1141651345666805	-0.22385279883764453	0.06755512547725451	1.064355194564121	-0.08265321134788069	1.4481332862540424	0.9656846210772971	-0.0980650264970534	1.6963662810335713	0.9142847595229014	-0.2589932124616446	1.5681057903633904	0.9967437608550729	-0.05826834411822619	1.3466667793393263	0.7800404908493338	-0.10432549373724621	1.0771153778616147	0.7371306885840445	-0.23248389130025812	0.8591902780561047	0.7208895358726781	-0.048098192224236704	1.3437767830781537	1.1606191484377475	0.0013721003467288546	1.0892260974657504	1.2063123045271915	-0.0005948960279490996	0.8433239581722279	1.2304861092289752
436	14.533333333333331	-0.07754840695889727	0.8465293224574887	0.9708042808063153	-0.057859081969351335	0.8196829000715411	0.8663286667123915	0.0033452883248840572	0.479656561027635	0.8907121953931897	0.12341756440011417	0.10464464322460745	0.9297678897841458	-0.039884123078296765	0.019343806984013907	0.9236356863427277	-0.006947483854958041	0.017448655962385613	0.874763449448423	0.16813043660840507	0.04374132745005869	0.949796908774459	-0.08181623226828869	0.8134677567674033	1.0692715525187146	-0.24857839854611916	0.48048941949220025	1.081884187003877	-0.3269534755335503	0.12542761512001088	1.073656734156562	-0.5252072172713512	0.0923814643068416	1.0683306567381397	-0.4836015017337005	0.09074967011905663	1.1181223936497187	-0.30249181577984025	0.055744319210974086	1.0610060614641275	-0.11843222343843202	1.4438591236623473	0.9697500839434604	-0.16734534450229832	1.6987545246280091	0.9492108273579715	-0.29000010094569323	1.563252460098993	0.9999151312068116	-0.09200330276544424	1.3415592098021523	0.7846730881554067	-0.14355969205447572	1.0738855756328507	0.7408353178502046	-0.28083944189948556	0.8611761770633661	0.7248605107109598	-0.08287918340624216	1.3412026838246933	1.164635980348868	-0.024316362369302024	1.0863154364135417	1.2068573833081113	-0.020672062500693162	0.8406397749594366	1.2297776066866615
437	14.566666666666666	-0.11031205974682261	0.8412902800265559	0.9730399744888216	-0.09188514917579035	0.8135218442091294	0.86887063748424	-0.01808967531504388	0.4743665386442514	0.8945476744052314	0.11970801939257569	0.10768083608679331	0.9304234248837757	-0.04268492460867797	0.01975027690857419	0.9204427666870986	-0.003971075604158582	0.01567774770141611	0.8763702728243521	0.1678086541233615	0.04820856387785898	0.9508441359078356	-0.11539095936508109	0.8068497071977443	1.07039679205601	-0.28398082798247326	0.4721148382086504	1.0788328835444891	-0.3880994281232339	0.11987557994069027	1.0672466123052313	-0.5866211672923728	0.09962390798935229	1.0726205981849894	-0.542335837855122	0.09178524257097533	1.1198261817532367	-0.3658158113511038	0.048521806430539	1.055268913907994	-0.1552829214254816	1.4392884282915999	0.9744018389100557	-0.22735926564300546	1.7007518109947077	0.9744208922632124	-0.3225075634128189	1.5576251544775532	1.003642857716813	-0.12756965172426435	1.3369822505265143	0.790047567837433	-0.18198964703193715	1.070371506957768	0.7445762360551743	-0.32539981752431374	0.8616685843451899	0.7290833787046554	-0.11905174551174472	1.339035712658262	1.1689042600482311	-0.052612108217517176	1.0821870666050604	1.2069842443409848	-0.0458539639993046	0.8362796408171833	1.2288033153055407
438	14.6	-0.1455959371732714	0.8360470349201907	0.9762540974076983	-0.1285600532463413	0.8077537212328394	0.8724141939458191	-0.044671481532141386	0.4676827292739107	0.899792139259771	0.11281290598170395	0.11410870636993097	0.9303666770557654	-0.04432221116371919	0.01955984474661844	0.9173469978653753	-0.0003641207623129554	0.01435020250296758	0.8775244939870176	0.1666992563997977	0.057071812541834445	0.9504753546070706	-0.15140420882843722	0.8005999894793434	1.0724567851165807	-0.31799646915768015	0.46463271988193194	1.0768758626625368	-0.43476145648758574	0.11556413206963136	1.0606166709469913	-0.6338902646778077	0.10119748449944523	1.0753275333140835	-0.5854386880365168	0.08797135857751498	1.1202466438112257	-0.4127159553855862	0.04329819838043804	1.0486372312641625	-0.19304321538621955	1.435045340910294	0.9797934781498749	-0.2738974290409842	1.7010183904686316	0.9867910760605882	-0.35697331562232465	1.5518732281838528	1.008282639897083	-0.1651423793229624	1.3336279729230076	0.7962776312343935	-0.21912810475110414	1.06704636752848	0.7485322922641382	-0.3654986114138859	0.8604169187513498	0.7334121351827771	-0.15657705102723202	1.3370463343115275	1.1736516100487902	-0.08423638260415063	1.077546598931582	1.2072745198734467	-0.07664981283741841	0.8306847491648949	1.2278882706746905
